# xmcd CD database file
#
# Track frame offsets:
#	150
#	26406
#	50339
#	71557
#	97011
#	110089
#	138256
#	166401
#	190061
#	219573
#
# Disc length: 3217 seconds
#
# Revision: 2
# Processed by: cddbd v1.5.2PL0 Copyright (c) Steve Scherf et al.
# Submitted via: CDex 1.70beta1
#
DISCID=8c0c8f0a
DTITLE=German Kucich - Y Despues ...Que?
DYEAR=2002
DGENRE=Jazz
TTITLE0=Bemsha Swing
TTITLE1=Y Despues Que?
TTITLE2=Giant Steps
TTITLE3=Duas Luas
TTITLE4=Negra Y Punto
TTITLE5=I Should Care
TTITLE6=Una Y Otra Vez
TTITLE7=Light Rhythm
TTITLE8=I Loves You Porgy
TTITLE9=Trio Blues
EXTD=YEAR: 2002
EXTT0=
EXTT1=
EXTT2=
EXTT3=
EXTT4=
EXTT5=
EXTT6=
EXTT7=
EXTT8=
EXTT9=
PLAYORDER=
